<svg width="30" height="30" viewBox="0 0 30 30" fill="none" xmlns="http://www.w3.org/2000/svg">
<path d="M23.7385 11.0678C23.7525 11.2463 23.7525 11.4248 23.7525 11.6033C23.7525 17.0483 19.2157 23.3221 10.9238 23.3221C8.36927 23.3221 5.9962 22.6463 4 21.4732C4.36296 21.5114 4.71191 21.5241 5.08883 21.5241C7.19665 21.5241 9.13703 20.8738 10.6865 19.7644C8.7043 19.7262 7.04313 18.5403 6.47078 16.908C6.75 16.9463 7.02916 16.9718 7.32234 16.9718C7.72715 16.9718 8.132 16.9208 8.50888 16.8315C6.4429 16.449 4.89336 14.7913 4.89336 12.7892V12.7383C5.49359 13.0443 6.19162 13.2356 6.93141 13.261C5.71694 12.5214 4.92129 11.259 4.92129 9.83084C4.92129 9.06575 5.1446 8.36441 5.53549 7.75233C7.75503 10.2517 11.0913 11.8838 14.8324 12.0624C14.7626 11.7564 14.7207 11.4376 14.7207 11.1188C14.7207 8.84897 16.7309 7 19.2296 7C20.5278 7 21.7004 7.49731 22.524 8.30067C23.543 8.12215 24.5202 7.77784 25.3857 7.30604C25.0506 8.26244 24.3387 9.06579 23.4035 9.57582C24.3108 9.48661 25.1903 9.25703 25.9999 8.93827C25.3858 9.75434 24.618 10.4812 23.7385 11.0678Z" fill="#3A3A3A"/>
</svg>
